<svg width="37" height="28" viewBox="0 0 37 28" fill="none" xmlns="http://www.w3.org/2000/svg">
<path d="M46.3155 22.4539H49.9992L43.29 3.73933H39.0305L32.3304 22.4539H36.0141L37.5863 17.8427H44.7434L46.3247 22.4539H46.3155ZM38.5095 15.1101L41.078 7.56854H41.2242L43.8019 15.1101H38.5095ZM53.628 14.2202V22.4449H50.2643V8.4045H53.4818V10.7865H53.6463C53.9754 10.0045 54.4964 9.37528 55.2185 8.91686C55.9406 8.44944 56.8364 8.22472 57.8967 8.22472C58.8839 8.22472 59.7431 8.43146 60.4744 8.84494C61.2056 9.25843 61.7815 9.86067 62.1837 10.6427C62.5859 11.4247 62.787 12.3865 62.787 13.5011V22.436H59.4232V14.0045C59.4232 13.0697 59.1764 12.3326 58.6828 11.8022C58.1892 11.2719 57.5128 11.0112 56.6445 11.0112C56.0595 11.0112 55.5293 11.1371 55.0814 11.3888C54.6244 11.6405 54.2679 12.009 54.012 12.4854C53.756 12.9618 53.628 13.5371 53.628 14.2112V14.2202ZM70.2091 28C69.0026 28 67.9605 27.8382 67.0922 27.5236C66.2238 27.209 65.5291 26.7775 64.999 26.2382C64.4688 25.6989 64.1032 25.1056 63.9021 24.4584L66.9277 23.7393C67.0648 24.018 67.2659 24.2876 67.5218 24.5573C67.7777 24.827 68.1342 25.0517 68.573 25.2315C69.0117 25.4112 69.5784 25.5011 70.2548 25.5011C71.2055 25.5011 72.0007 25.2764 72.6223 24.818C73.2438 24.3596 73.5638 23.6225 73.5638 22.5798V19.9191H73.3992C73.2255 20.2607 72.9696 20.6112 72.6405 20.9708C72.3115 21.3303 71.8727 21.636 71.3334 21.8787C70.7941 22.1214 70.1086 22.2472 69.2951 22.2472C68.1982 22.2472 67.2019 21.9955 66.3152 21.4831C65.4286 20.9708 64.7156 20.2157 64.1946 19.2C63.6736 18.1843 63.4085 16.9169 63.4085 15.3798C63.4085 13.8427 63.6736 12.5393 64.1946 11.4697C64.7156 10.409 65.4286 9.6 66.3152 9.05169C67.211 8.50337 68.1982 8.22472 69.2951 8.22472C70.136 8.22472 70.8216 8.35955 71.3609 8.6382C71.9002 8.91685 72.3389 9.24944 72.6588 9.63596C72.9787 10.0225 73.2255 10.391 73.3901 10.7326H73.5729V8.41348H76.8909V22.6787C76.8909 23.8831 76.5984 24.8719 76.0134 25.6539C75.4284 26.436 74.6332 27.0292 73.6277 27.4157C72.6131 27.8022 71.4706 28 70.1909 28H70.2091ZM70.2366 19.6494C70.9495 19.6494 71.5528 19.4787 72.0555 19.1371C72.5583 18.7955 72.9422 18.3011 73.1981 17.6629C73.4541 17.0247 73.5912 16.2517 73.5912 15.3618C73.5912 14.4719 73.4632 13.7079 73.2073 13.0427C72.9513 12.3775 72.5766 11.8652 72.0738 11.4966C71.5711 11.1281 70.9587 10.9393 70.2366 10.9393C69.5145 10.9393 68.8655 11.1281 68.3627 11.5146C67.86 11.9011 67.4852 12.4225 67.2293 13.0876C66.9734 13.7528 66.8454 14.5079 66.8454 15.3618C66.8454 16.2157 66.9734 16.9708 67.2293 17.618C67.4852 18.2652 67.8691 18.7596 68.3719 19.1191C68.8746 19.4787 69.4962 19.6494 70.2366 19.6494ZM87.1102 16.5393V8.4045H90.4739V22.4449H87.2107V19.9461H87.0645C86.743 20.7297 86.1927 21.4021 85.4831 21.8787C84.7519 22.382 83.847 22.6247 82.7775 22.6247C81.8452 22.6247 81.0134 22.418 80.3004 22.0045C79.5874 21.591 79.0298 20.9888 78.6185 20.2067C78.2163 19.4157 78.0152 18.4629 78.0152 17.3393V8.4045H81.379V16.836C81.379 17.7258 81.6258 18.436 82.1194 18.9573C82.613 19.4787 83.262 19.7393 84.0755 19.7393C84.5691 19.7393 85.0535 19.6225 85.5197 19.3798C85.9859 19.1461 86.3698 18.7865 86.6714 18.3191C86.973 17.8427 87.1193 17.2584 87.1193 16.5393H87.1102ZM94.9437 3.72135V22.436H91.5799V3.72135H94.9437ZM100.282 22.7236C99.3769 22.7236 98.5634 22.5618 97.8412 22.2472C97.1191 21.9236 96.5524 21.4562 96.132 20.827C95.7115 20.1978 95.5013 19.4247 95.5013 18.5079C95.5013 17.7169 95.6475 17.0607 95.9491 16.5393C96.2508 16.018 96.653 15.6045 97.1648 15.2989C97.6767 14.9843 98.2617 14.7506 98.9107 14.5888C99.5597 14.427 100.227 14.3101 100.922 14.2382C101.763 14.1573 102.439 14.0764 102.96 14.0045C103.481 13.9326 103.856 13.8247 104.103 13.6719C104.34 13.5191 104.459 13.2854 104.459 12.9708V12.9169C104.459 12.2247 104.249 11.6944 103.838 11.3169C103.426 10.9393 102.823 10.7506 102.046 10.7506C101.223 10.7506 100.565 10.9303 100.09 11.2809C99.6054 11.6315 99.2855 12.0539 99.1209 12.5303L95.9766 12.0899C96.2234 11.236 96.6347 10.5258 97.2014 9.95056C97.7681 9.37528 98.472 8.94382 99.2946 8.65618C100.117 8.36854 101.031 8.22472 102.028 8.22472C102.713 8.22472 103.399 8.30562 104.084 8.45843C104.77 8.62023 105.391 8.8809 105.949 9.24045C106.516 9.6 106.964 10.0944 107.311 10.7146C107.658 11.3348 107.823 12.1169 107.823 13.0427V22.436H104.587V20.5034H104.477C104.276 20.8899 103.984 21.2584 103.618 21.6C103.253 21.9416 102.786 22.2112 102.229 22.409C101.671 22.6067 101.022 22.7146 100.282 22.7146V22.7236ZM101.159 20.2966C101.836 20.2966 102.421 20.1618 102.914 19.9011C103.408 19.6404 103.792 19.2809 104.066 18.8494C104.331 18.409 104.468 17.9326 104.468 17.4112V15.7573C104.359 15.8382 104.185 15.9191 103.938 15.991C103.691 16.0629 103.408 16.1258 103.097 16.1798C102.786 16.2337 102.485 16.2876 102.174 16.3236C101.872 16.3685 101.607 16.4045 101.388 16.4315C100.885 16.4944 100.437 16.6112 100.044 16.764C99.6511 16.9169 99.3312 17.1326 99.1027 17.4022C98.8741 17.6719 98.7553 18.0225 98.7553 18.4449C98.7553 19.0562 98.9838 19.5146 99.4317 19.8292C99.8796 20.1438 100.465 20.2966 101.159 20.2966ZM108.856 22.4449V8.4045H112.119V10.7416H112.265C112.521 9.93258 112.969 9.30337 113.609 8.86292C114.24 8.42247 114.971 8.19775 115.784 8.19775C115.967 8.19775 116.177 8.19775 116.415 8.22472C116.644 8.2427 116.845 8.26068 117 8.29663V11.3438C116.854 11.2989 116.634 11.2539 116.324 11.209C116.013 11.173 115.72 11.1461 115.437 11.1461C114.825 11.1461 114.276 11.2719 113.783 11.5326C113.298 11.7933 112.914 12.1528 112.631 12.6022C112.357 13.0607 112.21 13.582 112.21 14.1843V22.436H108.847L108.856 22.4449ZM26.4621 4.59326L25.5115 19.3438L16.3709 0L26.4621 4.59326ZM20.1368 23.6764L13.2356 27.5506L6.33445 23.6764L7.74211 20.3326H18.7383L20.1459 23.6764H20.1368ZM13.2356 7.34382L16.8553 15.991H9.62508L13.2448 7.34382H13.2356ZM0.950625 19.3438L0 4.59326L10.0913 0L0.950625 19.3438Z" fill="white"/>
</svg>
