<svg width="199" height="26" viewBox="0 0 199 26" fill="none" xmlns="http://www.w3.org/2000/svg">
<g clip-path="url(#clip0_6_1595)">
<path d="M20.5479 0.5625C15.0684 0.5625 11.6437 3.30225 10.2738 8.78174C12.3285 6.04161 14.7259 5.01422 17.4657 5.69958C19.0286 6.09019 20.146 7.22434 21.3828 8.47975C23.3973 10.5242 25.7289 12.8912 30.8217 12.8912C36.3012 12.8912 39.7258 10.1514 41.0954 4.67193C39.0407 7.41207 36.6435 8.43945 33.9039 7.7541C32.3406 7.36348 31.2236 6.22934 29.9868 4.97393C27.9719 2.92951 25.6407 0.5625 20.5479 0.5625ZM10.2738 12.8912C4.79453 12.8912 1.36994 15.6309 0 21.1104C2.05478 18.3703 4.45198 17.3429 7.1916 18.0282C8.75483 18.4189 9.87227 19.553 11.1086 20.808C13.1235 22.8532 15.4551 25.2195 20.5479 25.2195C26.0272 25.2195 29.4517 22.4798 30.8217 17.0006C28.7669 19.7407 26.3697 20.7681 23.6301 20.0828C22.0668 19.6922 20.9494 18.558 19.7127 17.3026C17.6982 15.2582 15.3665 12.8912 10.2738 12.8912Z" fill="white"/>
<path d="M61.6402 10.9517H58.0543V17.8926C58.0543 19.7435 59.2689 19.7147 61.6402 19.5989V22.4039C56.8397 22.9823 54.931 21.6522 54.931 17.8926V10.9521H52.2705V7.94456H54.931V4.06017L58.0543 3.13513V7.94456H61.6402V10.9517ZM75.3098 7.94456H78.4332V22.4039H75.3098V20.3218C74.211 21.8547 72.5048 22.7802 70.2493 22.7802C66.3159 22.7802 63.048 19.4543 63.048 15.1742C63.048 10.8654 66.3159 7.56871 70.2489 7.56871C72.5048 7.56871 74.211 8.49375 75.3098 9.99791V7.94456ZM70.7406 19.8014C73.3431 19.8014 75.3098 17.8639 75.3098 15.1742C75.3098 12.4846 73.3431 10.5471 70.7406 10.5471C68.138 10.5471 66.1714 12.4846 66.1714 15.1742C66.1714 17.8639 68.138 19.8014 70.7406 19.8014ZM83.6387 5.77538C82.5395 5.77538 81.6432 4.85034 81.6432 3.78032C81.6442 3.25142 81.8548 2.74446 82.2288 2.37047C82.6028 1.99647 83.1097 1.78591 83.6387 1.78488C84.1676 1.78591 84.6745 1.99647 85.0485 2.37047C85.4225 2.74446 85.6331 3.25142 85.6341 3.78032C85.6341 4.85034 84.7374 5.77538 83.6387 5.77538ZM82.077 22.4039V7.94456H85.2V22.4039H82.077ZM88.815 22.4039V1.29321H91.9384V22.4039H88.815ZM112.211 7.94456H115.507L110.967 22.4039H107.902L104.894 12.6584L101.858 22.4039H98.7922L94.2517 7.94456H97.5485L100.354 17.9218L103.39 7.94456H106.369L109.377 17.9218L112.211 7.94456ZM119.382 5.77577C118.284 5.77577 117.387 4.85034 117.387 3.78032C117.388 3.25142 117.599 2.74446 117.973 2.37047C118.347 1.99647 118.854 1.78591 119.382 1.78488C119.911 1.78591 120.418 1.99647 120.792 2.37047C121.166 2.74446 121.377 3.25142 121.378 3.78032C121.378 4.85034 120.481 5.77538 119.382 5.77538M117.821 22.4035V7.94456H120.944V22.4039L117.821 22.4035ZM132.165 7.56793C135.404 7.56793 137.717 9.76587 137.717 13.5255V22.4035H134.594V13.8438C134.594 11.6463 133.321 10.4896 131.355 10.4896C129.302 10.4896 127.682 11.7038 127.682 14.6538V22.4039H124.559V7.94456H127.682V9.79541C128.637 8.29125 130.198 7.56793 132.165 7.56793ZM152.524 2.16073H155.647V22.4039H152.524V20.3218C151.425 21.8547 149.719 22.7802 147.463 22.7802C143.53 22.7802 140.262 19.4543 140.262 15.1742C140.262 10.8654 143.53 7.56871 147.463 7.56871C149.719 7.56871 151.425 8.49375 152.524 9.99791V2.16073ZM147.955 19.8014C150.557 19.8014 152.524 17.8639 152.524 15.1742C152.524 12.4846 150.557 10.5471 147.955 10.5471C145.352 10.5471 143.385 12.4846 143.385 15.1742C143.385 17.8639 145.352 19.8014 147.955 19.8014ZM166.116 22.7802C161.749 22.7802 158.481 19.4543 158.481 15.1742C158.481 10.8654 161.749 7.56871 166.116 7.56871C168.95 7.56871 171.408 9.04333 172.565 11.2992L169.875 12.8609C169.239 11.5017 167.822 10.6338 166.087 10.6338C163.542 10.6338 161.604 12.5717 161.604 15.1742C161.604 17.7768 163.542 19.7147 166.087 19.7147C167.822 19.7147 169.239 18.818 169.933 17.4876L172.623 19.0205C171.408 21.3052 168.95 22.7802 166.116 22.7802ZM177.77 11.9354C177.77 14.5667 185.549 12.9763 185.549 18.3264C185.549 21.2181 183.033 22.7802 179.91 22.7802C177.018 22.7802 174.936 21.4785 174.011 19.3964L176.7 17.8347C177.163 19.1364 178.32 19.9168 179.91 19.9168C181.298 19.9168 182.368 19.4543 182.368 18.2976C182.368 15.7238 174.589 17.1697 174.589 11.9934C174.589 9.27459 176.932 7.56871 179.881 7.56871C182.252 7.56871 184.219 8.66749 185.231 10.5763L182.6 12.0509C182.079 10.9233 181.067 10.4029 179.881 10.4029C178.753 10.4029 177.77 10.8942 177.77 11.9354ZM191.102 11.9354C191.102 14.5667 198.881 12.9763 198.881 18.3264C198.881 21.2181 196.365 22.7802 193.242 22.7802C190.35 22.7802 188.268 21.4785 187.342 19.3964L190.032 17.8347C190.494 19.1364 191.651 19.9168 193.242 19.9168C194.63 19.9168 195.7 19.4543 195.7 18.2976C195.7 15.7238 187.921 17.1697 187.921 11.9934C187.921 9.27459 190.263 7.56871 193.213 7.56871C195.584 7.56871 197.551 8.66749 198.563 10.5763L195.931 12.0509C195.411 10.9233 194.398 10.4029 193.213 10.4029C192.085 10.4029 191.102 10.8942 191.102 11.9354Z" fill="white"/>
</g>
<defs>
<clipPath id="clip0_6_1595">
<rect width="199" height="24.875" fill="white" transform="translate(0 0.5625)"/>
</clipPath>
</defs>
</svg>
