<svg width="278" height="408" viewBox="0 0 278 408" fill="none" xmlns="http://www.w3.org/2000/svg">
<path opacity="0.5" d="M123.746 332.529H278V408H10.5497V343.026L148.267 195.772C160.432 182.531 170.031 170.426 177.065 159.455C184.288 148.295 187.899 137.229 187.899 126.259C187.899 112.451 182.767 101.385 172.503 93.0626C162.238 84.5508 149.122 80.2949 133.155 80.2949C104.072 80.2949 77.935 95.2378 54.7446 125.124L0 72.6342C13.8762 50.6926 33.0749 33.1015 57.5959 19.8609C82.307 6.62031 109.204 0 138.287 0C177.065 0 208.714 11.4437 233.235 34.331C257.946 57.0292 270.302 86.064 270.302 121.435C270.302 143.755 265.644 163.9 256.33 181.869C247.016 199.65 234.565 216.768 218.978 233.224L123.746 332.529Z" fill="white"/>
</svg>
