<svg width="293" height="408" viewBox="0 0 293 408" fill="none" xmlns="http://www.w3.org/2000/svg">
<path opacity="0.5" d="M229.875 194.936C249.427 204.232 264.789 217.433 275.962 234.537C287.321 251.642 293 270.792 293 291.986C293 326.01 279.221 353.897 251.662 375.65C224.103 397.217 188.63 408 145.243 408C117.126 408 90.1252 403.073 64.2421 393.219C38.3591 383.18 16.945 369.608 0 352.503L45.2488 294.217C56.6076 306.116 70.7595 315.412 87.7045 322.105C104.65 328.612 121.967 331.866 139.657 331.866C161.071 331.866 178.388 327.125 191.609 317.643C205.016 308.161 211.72 295.984 211.72 281.11C211.72 266.051 205.296 253.78 192.447 244.298C179.599 234.63 163.119 229.796 143.009 229.796H85.7493V161.75H143.009C160.326 161.75 174.571 157.753 185.744 149.758C196.916 141.764 202.502 131.631 202.502 119.36C202.502 106.718 196.357 96.3992 184.068 88.4046C171.778 80.2242 155.857 76.134 136.305 76.134C120.85 76.134 105.953 78.7368 91.6149 83.9426C77.2768 88.9624 65.4525 96.0273 56.142 105.137L13.6864 47.9672C29.1417 33.0936 48.6006 21.3807 72.0629 12.8284C95.7115 4.27615 120.105 0 145.243 0C186.023 0 219.261 10.0396 244.958 30.1189C270.841 50.1982 283.783 76.134 283.783 107.926C283.783 126.332 278.941 143.158 269.258 158.403C259.762 173.463 246.634 185.64 229.875 194.936Z" fill="white"/>
</svg>
